<?xml version="1.0" encoding="UTF-8" standalone="no"?>
<svg
   viewBox="0 0 24 24"
   version="1.1"
   id="svg11414"
   sodipodi:docname="big-remote-play-together.svg"
   width="24"
   height="24"
   xml:space="preserve"
   inkscape:version="1.4.3 (0d15f75042, 2025-12-25)"
   inkscape:export-filename="restaurar.png"
   inkscape:export-xdpi="800"
   inkscape:export-ydpi="800"
   xmlns:inkscape="http://www.inkscape.org/namespaces/inkscape"
   xmlns:sodipodi="http://sodipodi.sourceforge.net/DTD/sodipodi-0.dtd"
   xmlns:xlink="http://www.w3.org/1999/xlink"
   xmlns="http://www.w3.org/2000/svg"
   xmlns:svg="http://www.w3.org/2000/svg"><sodipodi:namedview
     id="namedview11416"
     pagecolor="#ffffff"
     bordercolor="#000000"
     borderopacity="0.25"
     inkscape:showpageshadow="2"
     inkscape:pageopacity="0.0"
     inkscape:pagecheckerboard="0"
     inkscape:deskcolor="#d1d1d1"
     showgrid="false"
     inkscape:zoom="11.313709"
     inkscape:cx="26.295532"
     inkscape:cy="25.013901"
     inkscape:window-width="1720"
     inkscape:window-height="1369"
     inkscape:window-x="0"
     inkscape:window-y="0"
     inkscape:window-maximized="0"
     inkscape:current-layer="svg11414"
     showguides="true" /><defs
     id="defs11384"><linearGradient
       id="linearGradient77"
       x1=".05"
       x2="1"
       y2="1"
       gradientTransform="matrix(22,0,0,22,-56.75,-22.125)"
       gradientUnits="userSpaceOnUse"><stop
         stop-color="#7e0000"
         offset="0.2"
         id="stop75"
         style="stop-color:#1a2973;stop-opacity:1;" /><stop
         stop-color="#ae0003"
         offset="0.205"
         id="stop76"
         style="stop-color:#273ead;stop-opacity:1;" /><stop
         stop-color="#7e0002"
         offset="1"
         id="stop77"
         style="stop-color:#2945c4;stop-opacity:1;" /></linearGradient><linearGradient
       id="linearGradient71"
       x1="0.050000001"
       x2="1"
       y1="0"
       y2="1"
       gradientTransform="matrix(22,0,0,22,148.25,3.3011262)"
       gradientUnits="userSpaceOnUse"
       spreadMethod="pad"><stop
         style="stop-color:#f9f9f9;stop-opacity:0.50196081;"
         offset="0.2"
         id="stop69" /><stop
         style="stop-color:#ba9060;stop-opacity:1;"
         offset="0.205"
         id="stop70" /><stop
         style="stop-color:#6a3c19;stop-opacity:1;"
         offset="1"
         id="stop71" /></linearGradient><linearGradient
       id="linearGradient67"
       x1="0.050000001"
       x2="1"
       y1="0"
       y2="1"
       gradientTransform="matrix(22,0,0,22,148.25,3.3011262)"
       gradientUnits="userSpaceOnUse"
       spreadMethod="pad"><stop
         style="stop-color:#b4f1fb;stop-opacity:1;"
         offset="0"
         id="stop65" /><stop
         style="stop-color:#80c5ef;stop-opacity:1;"
         offset="0.205"
         id="stop66" /><stop
         style="stop-color:#7668fe;stop-opacity:1;"
         offset="0.60250002"
         id="stop68" /><stop
         style="stop-color:#1d40bb;stop-opacity:1;"
         offset="1"
         id="stop67" /></linearGradient><linearGradient
       id="linearGradient64"
       x1="0.050000001"
       x2="1"
       y1="0"
       y2="1"
       gradientTransform="matrix(22,0,0,22,148.25,3.3011262)"
       gradientUnits="userSpaceOnUse"
       spreadMethod="pad"><stop
         style="stop-color:#55199d;stop-opacity:1;"
         offset="0.2"
         id="stop62" /><stop
         style="stop-color:#ba9060;stop-opacity:1;"
         offset="0.205"
         id="stop63" /><stop
         style="stop-color:#6a3c19;stop-opacity:1;"
         offset="1"
         id="stop64" /></linearGradient><linearGradient
       id="linearGradient61"
       x1="0.050000001"
       x2="1"
       y1="0"
       y2="1"
       gradientTransform="matrix(22,0,0,22,148.25,3.3011262)"
       gradientUnits="userSpaceOnUse"
       spreadMethod="pad"><stop
         style="stop-color:#43127b;stop-opacity:1;"
         offset="0.2"
         id="stop59" /><stop
         style="stop-color:#ba9060;stop-opacity:1;"
         offset="0.205"
         id="stop60" /><stop
         style="stop-color:#6a3c19;stop-opacity:1;"
         offset="1"
         id="stop61" /></linearGradient><linearGradient
       id="linearGradient58"
       x1=".05"
       x2="1"
       y1="0"
       y2="1"
       gradientTransform="matrix(22,0,0,22,148.25,3.3011262)"
       gradientUnits="userSpaceOnUse"><stop
         style="stop-color:#411178;stop-opacity:1;"
         offset="0.2"
         id="stop56" /><stop
         style="stop-color:#ba9060;stop-opacity:1;"
         offset="0.205"
         id="stop57" /><stop
         style="stop-color:#6a3c19;stop-opacity:1;"
         offset="1"
         id="stop58" /></linearGradient><linearGradient
       id="linearGradient53"
       x1=".05"
       x2="1"
       y2="1"
       gradientTransform="matrix(22,0,0,22,-55.75,5.375)"
       gradientUnits="userSpaceOnUse"><stop
         stop-color="#2191d3"
         offset=".2"
         id="stop51" /><stop
         stop-color="#2ac2f0"
         offset=".205"
         id="stop52" /><stop
         stop-color="#0948bd"
         offset="1"
         id="stop53"
         style="stop-color:#fafafa;stop-opacity:0.80000001;" /></linearGradient><style
       id="style11382">.cls-1{fill:#069;}.cls-2{fill:#2991c9;}.cls-3{fill:#fff;}.cls-4{fill:#002a44;}.cls-5{fill:#3380cc;}.cls-6{fill:#cc5e55;}</style><radialGradient
       id="paint0_radial_29_23"
       cx="0"
       cy="0"
       r="1"
       gradientUnits="userSpaceOnUse"
       gradientTransform="matrix(0,22,-22,0,11.999988,1.0000149)"><stop
         stop-color="#8FC8FF"
         id="stop11537" /><stop
         offset="1"
         stop-color="#0056A8"
         id="stop11539"
         style="stop-color:#006699;stop-opacity:1;" /></radialGradient><radialGradient
       id="paint0_radial_1_40"
       cx="0"
       cy="0"
       r="1"
       gradientUnits="userSpaceOnUse"
       gradientTransform="matrix(0,24,-24,0,-2.29062,44.73684)"><stop
         stop-color="#C2E5FF"
         id="stop11601" /><stop
         offset="1"
         stop-color="#3276AA"
         id="stop11603" /></radialGradient><radialGradient
       fx="0"
       fy="0"
       cx="0"
       cy="0"
       r="1"
       gradientUnits="userSpaceOnUse"
       gradientTransform="matrix(0,16.5,-16.5,0,8.999991,0.750011)"
       spreadMethod="pad"
       id="radialGradient16463"><stop
         style="stop-opacity:1;stop-color:#8fc8ff"
         offset="0"
         id="stop16459" /><stop
         style="stop-opacity:1;stop-color:#006699"
         offset="1"
         id="stop16461" /></radialGradient><clipPath
       clipPathUnits="userSpaceOnUse"
       id="clipPath16473"><path
         d="M 0,0 H 151 V 116 H 0 Z"
         id="path16471" /></clipPath><radialGradient
       fx="0"
       fy="0"
       cx="0"
       cy="0"
       r="1"
       gradientUnits="userSpaceOnUse"
       gradientTransform="matrix(0,16.5,-16.5,0,8.999991,0.750011)"
       spreadMethod="pad"
       id="radialGradient16463-5"><stop
         style="stop-opacity:1;stop-color:#8fc8ff"
         offset="0"
         id="stop16459-9" /><stop
         style="stop-opacity:1;stop-color:#006699"
         offset="1"
         id="stop16461-4" /></radialGradient><clipPath
       clipPathUnits="userSpaceOnUse"
       id="clipPath16473-9"><path
         d="M 0,0 H 151 V 116 H 0 Z"
         id="path16471-0" /></clipPath><style
       id="style1">.cls-1{fill:#16171c;stroke:#000;stroke-miterlimit:10;}.cls-2{fill:#2c2d3d;}.cls-3{fill:url(#linear-gradient);}.cls-4{fill:url(#linear-gradient-2);}.cls-5{fill:url(#linear-gradient-3);}</style><linearGradient
       id="linear-gradient"
       x1="70.74"
       y1="207.69"
       x2="304.39"
       y2="456.44"
       gradientTransform="matrix(1, 0, 0, -1, 16.81, 529.63)"
       gradientUnits="userSpaceOnUse"><stop
         offset="0"
         stop-color="#2d85c6"
         id="stop1" /><stop
         offset="1"
         stop-color="#04bacc"
         id="stop2" /></linearGradient><linearGradient
       id="linear-gradient-2"
       x1="146.39"
       y1="136.63"
       x2="380.04"
       y2="385.38"
       xlink:href="#linear-gradient" /><linearGradient
       id="linear-gradient-3"
       x1="127.32"
       y1="154.54"
       x2="360.97"
       y2="403.29"
       xlink:href="#linear-gradient" /><linearGradient
       id="a"
       x1="123.3"
       x2="8.2605"
       y1="120.17"
       y2="13.466"
       gradientTransform="matrix(0.18333,0,0,0.18333,53.823536,2.948851)"
       gradientUnits="userSpaceOnUse"><stop
         stop-color="#0257a9"
         offset="0"
         id="stop1-3" /><stop
         stop-color="#4c92d6"
         offset="1"
         id="stop2-6" /></linearGradient><style
       id="style2">.cls-1{stroke:#333;stroke-miterlimit:10;stroke-width:6px;fill:url(#linear-gradient);}.cls-2{fill:url(#linear-gradient-2);}.cls-3{fill:#0d0e0e;}.cls-4{opacity:0.7;isolation:isolate;fill:url(#linear-gradient-3);}</style><linearGradient
       id="linear-gradient-35"
       x1="100.05"
       y1="164.11"
       x2="100.05"
       y2="3.23"
       gradientUnits="userSpaceOnUse"><stop
         offset="0"
         id="stop4-6" /><stop
         offset="0.6"
         stop-color="#fff"
         id="stop6" /><stop
         offset="0.66"
         stop-color="#fff"
         id="stop8" /><stop
         offset="0.7"
         stop-color="#fafafa"
         id="stop10" /><stop
         offset="0.74"
         stop-color="#ececec"
         id="stop12" /><stop
         offset="0.78"
         stop-color="#d5d5d5"
         id="stop14" /><stop
         offset="0.83"
         stop-color="#b4b4b4"
         id="stop16" /><stop
         offset="0.88"
         stop-color="#8a8a8a"
         id="stop18" /><stop
         offset="0.93"
         stop-color="#575757"
         id="stop20" /><stop
         offset="0.98"
         stop-color="#1b1b1b"
         id="stop22" /><stop
         offset="1"
         id="stop24" /></linearGradient><linearGradient
       id="linear-gradient-2-2"
       x1="106.56"
       y1="83.76"
       x2="195.62"
       y2="83.76"
       gradientUnits="userSpaceOnUse"><stop
         offset="0"
         id="stop27" /><stop
         offset="1"
         stop-color="#fff"
         id="stop29" /></linearGradient><linearGradient
       id="linear-gradient-3-9"
       x1="100.54"
       y1="86.27"
       x2="100.54"
       y2="5.83"
       gradientUnits="userSpaceOnUse"><stop
         offset="0"
         stop-color="#fff"
         stop-opacity="0.6"
         id="stop32" /><stop
         offset="1"
         stop-color="#fff"
         stop-opacity="0"
         id="stop34" /></linearGradient><linearGradient
       id="a-1"
       x1=".05"
       x2="1"
       y2="1"
       gradientTransform="matrix(22,0,0,22,25.25,-0.62500002)"
       gradientUnits="userSpaceOnUse"><stop
         stop-color="#c0d1cd"
         offset="0.2"
         id="stop1-2"
         style="stop-color:#4389d0;stop-opacity:0.90196079;" /><stop
         offset=".205"
         id="stop2-7" /><stop
         stop-color="#454545"
         offset="1"
         id="stop3-0"
         style="stop-color:#3c62df;stop-opacity:1;" /></linearGradient><linearGradient
       id="linearGradient9"
       x1="2.0339"
       x2="21.999"
       y1="17.905"
       y2="17.905"
       gradientTransform="translate(25.25,-0.55472202)"
       gradientUnits="userSpaceOnUse"><stop
         stop-color="#c0d1cd"
         offset="0"
         id="stop4-9" /><stop
         stop-color="#f5f6ec"
         offset="1"
         id="stop5" /></linearGradient><linearGradient
       id="a-2"
       x1=".05"
       x2="1"
       y2="1"
       gradientTransform="matrix(22,0,0,22,-55.75,5.375)"
       gradientUnits="userSpaceOnUse"><stop
         stop-color="#2191d3"
         offset=".2"
         id="stop8-8" /><stop
         stop-color="#2ac2f0"
         offset=".205"
         id="stop9" /><stop
         stop-color="#0948bd"
         offset="1"
         id="stop10-9" /></linearGradient><linearGradient
       id="a-3"
       x1=".05"
       x2="1"
       y2="1"
       gradientTransform="matrix(22,0,0,22,-56.75,-22.125)"
       gradientUnits="userSpaceOnUse"><stop
         stop-color="#7e0000"
         offset="0.2"
         id="stop2-61"
         style="stop-color:#0d0d54;stop-opacity:1;" /><stop
         stop-color="#ae0003"
         offset="0.205"
         id="stop3-2"
         style="stop-color:#6437f2;stop-opacity:1;" /><stop
         stop-color="#7e0002"
         offset="1"
         id="stop4-93"
         style="stop-color:#8b47ff;stop-opacity:1;" /></linearGradient><linearGradient
       id="a-30"
       x1=".05"
       x2="1"
       y1="0"
       y2="1"
       gradientTransform="matrix(22,0,0,22,148.25,3.3011262)"
       gradientUnits="userSpaceOnUse"
       xlink:href="#linearGradient64"><stop
         style="stop-color:#f25edf;stop-opacity:1;"
         offset="0"
         id="stop1-30" /><stop
         style="stop-color:#8c2df9;stop-opacity:1;"
         offset="0.38993961"
         id="stop2-9" /><stop
         style="stop-color:#43127b;stop-opacity:1;"
         offset="1"
         id="stop3-25" /></linearGradient><linearGradient
       id="linearGradient148"
       x1="93.251526"
       y1="104.3218"
       x2="-67.822433"
       y2="-104.28946"
       spreadMethod="pad"
       gradientUnits="userSpaceOnUse"
       gradientTransform="matrix(0.03254379,0,0,0.03260219,4.2278406,4.232806)"><stop
         id="stop146"
         offset="0"
         stop-color="#093b8e"
         style="stop-color:#300b58;stop-opacity:1;" /><stop
         id="stop147"
         offset="0.5"
         stop-color="#093b8e"
         style="stop-color:#872bfa;stop-opacity:1;" /><stop
         id="stop148"
         offset="1"
         stop-color="#71f6b8"
         style="stop-color:#ff64dc;stop-opacity:1;" /></linearGradient><linearGradient
       id="linearGradient191"
       x1="93.251526"
       y1="104.3218"
       x2="-67.822433"
       y2="-104.28946"
       spreadMethod="pad"
       gradientUnits="userSpaceOnUse"
       gradientTransform="matrix(0.03254379,0,0,0.03260219,4.2278406,4.232806)"><stop
         id="stop189"
         offset="0"
         stop-color="#093b8e"
         style="stop-color:#0938ac;stop-opacity:1;" /><stop
         id="stop190"
         offset="0.5"
         stop-color="#093b8e"
         style="stop-color:#7562ff;stop-opacity:1;" /><stop
         id="stop191"
         offset="1"
         stop-color="#71f6b8"
         style="stop-color:#86fae6;stop-opacity:1;" /></linearGradient><linearGradient
       id="a-0"
       x1=".05"
       x2="1"
       y2="1"
       gradientTransform="matrix(22,0,0,22,224,4)"
       gradientUnits="userSpaceOnUse"><stop
         stop-color="#8f8f8f"
         offset=".2"
         id="stop1-5" /><stop
         stop-color="#fff"
         offset=".205"
         id="stop2-94" /><stop
         stop-color="#dadada"
         offset="1"
         id="stop3-6" /></linearGradient><linearGradient
       inkscape:collect="always"
       xlink:href="#a-3"
       id="linearGradient72"
       gradientUnits="userSpaceOnUse"
       gradientTransform="matrix(22,0,0,22,-1e-5,-0.003103)"
       x1=".05"
       x2="1"
       y2="1" /><linearGradient
       id="a-36"
       gradientTransform="matrix(33,0,0,33,18,31)"
       gradientUnits="userSpaceOnUse"><stop
         stop-color="#85C1EA"
         id="stop2-75" /><stop
         offset="1"
         stop-color="#3C90C9"
         id="stop3" /></linearGradient><style
       id="current-color-scheme"
       type="text/css">
   .ColorScheme-Text { color:#dfdfdf; } .ColorScheme-Highlight { color:#4285f4; } .ColorScheme-NeutralText { color:#ff9800; } .ColorScheme-PositiveText { color:#4caf50; } .ColorScheme-NegativeText { color:#f44336; }
  </style><style
       id="current-color-scheme-6"
       type="text/css">.ColorScheme-Text { color:#dfdfdf; } .ColorScheme-Highlight { color:#4285f4; } .ColorScheme-NeutralText { color:#ff9800; } .ColorScheme-PositiveText { color:#4caf50; } .ColorScheme-NegativeText { color:#f44336; }</style><style
       id="current-color-scheme-9"
       type="text/css">
   .ColorScheme-Text { color:#444444; } .ColorScheme-Highlight { color:#4285f4; } .ColorScheme-NeutralText { color:#ff9800; } .ColorScheme-PositiveText { color:#4caf50; } .ColorScheme-NegativeText { color:#f44336; }
  </style></defs><rect
     x="0.9999963"
     y="0.99689674"
     width="22"
     height="22"
     rx="6.5999999"
     fill="url(#a)"
     opacity="0.9"
     stroke="#808080"
     stroke-opacity="0.2"
     vector-effect="non-scaling-stroke"
     style="fill:url(#linearGradient72);-inkscape-stroke:hairline"
     id="rect72" /><path
     id="path72"
     style="fill:#ffffff;stroke-width:0.0597892"
     class="cls-3"
     d="m 14.34926,4.123607 c -0.0823,-1.39e-4 -0.16956,0.007 -0.26215,0.02248 -1.48157,0.247523 -1.41872,1.973072 -1.41872,1.973072 0,0 -5e-5,0.763515 0.71202,1.149751 0.5931,0.341392 0.93456,-0.02752 0.99255,-0.08553 0.058,-0.05801 1.26393,-1.567077 1.07021,1.298602 0,0 0.42391,-0.461582 0.45082,-1.561696 0.0269,-1.100115 -0.68102,-1.168239 -0.68102,-1.168239 0,0 -0.31212,-0.07836 -0.93273,0.591894 -0.62061,0.670234 -0.66367,0.64034 -0.66367,0.64034 0,0 -0.17513,0.12373 -0.19606,-0.187142 -0.0209,-0.310902 -0.0873,-1.252531 0.85973,-1.761933 0.94705,-0.5094 1.4081,0.738941 1.4081,0.738941 0,0 -0.10517,-1.648429 -1.33908,-1.650531 z m -2.67305,0.713346 a 0.50342214,0.67142881 77.92 0 0 -0.1735,0.01964 0.50342214,0.67142881 77.92 0 0 -0.55122,0.632754 0.50342214,0.67142881 77.92 0 0 0.76188,0.35174 A 0.50342214,0.67142881 77.92 0 0 12.2646,5.208335 0.50342214,0.67142881 77.92 0 0 11.67621,4.836966 Z M 8.5531,5.050179 c 0,0 -0.42451,0.462084 -0.45081,1.561601 -0.0263,1.099519 0.67978,1.16473 0.67978,1.16473 0,0 0.31212,0.07769 0.93273,-0.592557 0.62061,-0.670232 0.66423,-0.639108 0.66423,-0.639108 0,0 0.17518,-0.123139 0.1955,0.187162 0.0202,0.310305 0.0879,1.255587 -0.85973,1.762597 C 8.76714,9.001612 8.30735,7.755567 8.30735,7.755567 c 0,0 0.11957,1.874991 1.60114,1.628065 1.48157,-0.246929 1.41882,-1.972981 1.41882,-1.972981 0,0 0.002,-0.762916 -0.71268,-1.14975 -0.59311,-0.341394 -0.93397,0.02748 -0.99256,0.0861 -0.0586,0.0586 -1.26269,1.567086 -1.06897,-1.2968 z m 3.26864,0.917371 a 0.51358673,0.51358673 0 0 0 -0.47291,0.551033 0.50521582,0.50521582 0 0 0 0.0233,0.119533 c 0,0 0.29896,1.188566 1.90728,1.226828 0,-5.95e-4 -0.92799,-0.662388 -0.90647,-1.424696 A 0.51358673,0.51358673 0 0 0 11.82172,5.96753 Z" /><path
     id="path6"
     style="fill:#f9f9f9;fill-opacity:0.8;stroke-width:0.559246"
     class="ColorScheme-Text"
     d="M 10.755859 11.708984 L 10.519531 11.710938 C 9.595296 11.731687 8.7353907 12.139611 8.1035156 12.771484 C 7.4716417 13.403359 7.0647264 14.262323 7.0449219 15.1875 L 7.0410156 15.421875 C 7.0362756 15.609552 7.1873251 15.766769 7.375 15.771484 C 7.5636193 15.775184 7.7179399 15.625177 7.7226562 15.4375 L 7.7285156 15.201172 C 7.7596416 13.742202 9.074231 12.427606 10.533203 12.396484 L 10.769531 12.390625 C 10.957209 12.385825 11.10729 12.229636 11.103516 12.041016 C 11.098716 11.853341 10.943535 11.704268 10.755859 11.708984 z M 10.533203 13.154297 C 9.9645179 13.126937 9.439804 13.365085 9.0644531 13.746094 C 8.6881579 14.128048 8.4608642 14.653167 8.4863281 15.199219 L 8.4980469 15.453125 C 8.5017469 15.543665 8.541467 15.629095 8.609375 15.689453 C 8.676336 15.750743 8.7639877 15.784017 8.8554688 15.779297 C 8.9460057 15.775597 9.0314391 15.735862 9.0917969 15.667969 C 9.1530899 15.601009 9.1843985 15.511401 9.1796875 15.419922 L 9.1679688 15.167969 C 9.1377908 14.521005 9.8106649 13.80293 10.501953 13.835938 L 10.753906 13.845703 C 10.844436 13.851303 10.933041 13.821066 11 13.759766 C 11.06791 13.699406 11.108556 13.612963 11.113281 13.521484 C 11.116981 13.430944 11.084737 13.342352 11.023438 13.275391 C 10.963078 13.209381 10.877647 13.169776 10.787109 13.166016 L 10.533203 13.154297 z M 10.587891 14.628906 C 10.028645 14.628906 10.029297 15.189453 10.029297 15.189453 L 10.029297 21.339844 C 10.029297 21.899089 10.587891 21.900391 10.587891 21.900391 L 13.919922 21.900391 C 13.812879 21.908037 13.384766 21.969642 13.384766 22.458984 L 13.384766 23.017578 L 16.740234 23.017578 L 16.740234 22.458984 C 16.740234 21.969642 16.312121 21.908037 16.205078 21.900391 L 19.535156 21.900391 C 20.094402 21.900391 20.095703 21.339844 20.095703 21.339844 L 20.095703 15.189453 C 20.095703 15.189453 20.094402 14.628906 19.535156 14.628906 L 10.587891 14.628906 z M 11.146484 15.748047 L 18.976562 15.748047 L 18.976562 20.78125 L 11.146484 20.78125 L 11.146484 15.748047 z M 13.669922 16.216797 C 12.973988 16.216797 12.450642 16.775419 12.414062 17.46875 L 12.275391 19.835938 C 12.187291 20.353267 12.690574 20.678986 13.113281 20.113281 C 13.376862 19.755625 13.943359 19.011719 13.943359 19.011719 L 16.179688 19.023438 L 17.015625 20.148438 C 17.434808 20.711067 17.906791 20.247991 17.853516 19.867188 L 17.714844 17.498047 C 17.715062 17.488347 17.71875 17.47848 17.71875 17.46875 C 17.718742 16.774578 17.158714 16.216797 16.462891 16.216797 L 13.669922 16.216797 z M 13.384766 16.775391 L 13.943359 16.775391 L 13.943359 17.333984 L 14.501953 17.333984 L 14.501953 17.894531 L 13.943359 17.894531 L 13.943359 18.453125 L 13.384766 18.453125 L 13.384766 17.894531 L 12.824219 17.894531 L 12.824219 17.333984 L 13.384766 17.333984 L 13.384766 16.775391 z M 16.460938 16.775391 C 16.615389 16.775391 16.740234 16.900251 16.740234 17.054688 C 16.740234 17.209128 16.615396 17.333984 16.460938 17.333984 C 16.306486 17.333984 16.179687 17.209124 16.179688 17.054688 C 16.179688 16.900247 16.306491 16.775391 16.460938 16.775391 z M 15.900391 17.333984 C 16.054843 17.333984 16.179687 17.458845 16.179688 17.613281 C 16.179688 17.767719 16.054836 17.894531 15.900391 17.894531 C 15.745938 17.894531 15.621094 17.767715 15.621094 17.613281 C 15.621094 17.458841 15.745944 17.333984 15.900391 17.333984 z M 17.019531 17.333984 C 17.173983 17.333984 17.298828 17.458845 17.298828 17.613281 C 17.298828 17.767719 17.173978 17.894531 17.019531 17.894531 C 16.86508 17.894531 16.740234 17.767715 16.740234 17.613281 C 16.740234 17.458841 16.865085 17.333984 17.019531 17.333984 z M 16.431641 17.894531 C 16.441042 17.893577 16.451285 17.894531 16.460938 17.894531 C 16.615389 17.894531 16.740234 18.019392 16.740234 18.173828 C 16.740234 18.328267 16.615396 18.453125 16.460938 18.453125 C 16.306486 18.453125 16.179687 18.328264 16.179688 18.173828 C 16.179688 18.029041 16.290624 17.908851 16.431641 17.894531 z " /><path
     id="path9"
     style="fill:#f9f9f9;fill-opacity:0.504792;stroke-width:0.559246"
     class="ColorScheme-Text"
     d="M 4.4648438 10.138672 C 3.9055978 10.138672 3.9042969 10.699219 3.9042969 10.699219 L 3.9042969 16.849609 C 3.9042969 17.408854 4.4648437 17.410156 4.4648438 17.410156 L 7.7949219 17.410156 C 7.6878844 17.417796 7.2597656 17.479408 7.2597656 17.96875 L 7.2597656 18.527344 L 8.9589844 18.527344 L 8.9589844 16.291016 L 5.0234375 16.291016 L 5.0234375 11.257812 L 12.855469 11.257812 L 12.855469 13.736328 L 13.972656 13.736328 L 13.972656 10.699219 C 13.972656 10.699219 13.973307 10.138672 13.414062 10.138672 L 4.4648438 10.138672 z " /></svg>
